<?xml version="1.0" encoding="utf-8"?>
<!-- Generator: Adobe Illustrator 21.0.2, SVG Export Plug-In . SVG Version: 6.00 Build 0)  -->
<svg version="1.1" id="Capa_1" xmlns="http://www.w3.org/2000/svg" xmlns:xlink="http://www.w3.org/1999/xlink" x="0px" y="0px"
	 viewBox="0 0 250 240" style="enable-background:new 0 0 250 240;" xml:space="preserve">
<style type="text/css">
	.st0{fill:#296BB2;}
</style>
<g transform="translate(0.000000,240.000000) scale(0.100000,-0.100000)">
	<path class="st0" d="M160,2387c-49-16-133-102-148-153C-5,2174-5,226,12,166c16-55,99-138,154-154C194,4,292,0,464,0h256v120v120
		H480H240v960v960h240h240v120v120l-262-1C297,2398,181,2394,160,2387z"/>
	<path class="st0" d="M1769,1921c-38-38-38-76,0-127c15-21,118-142,228-269l200-230l-726-5c-399-3-727-6-728-8c-1-1-14-13-28-27
		c-40-41-31-109,18-137c17-10,184-14,739-18l718-5l-230-253c-126-138-234-261-240-271c-18-35-11-71,19-102c33-33,74-38,109-14
		c26,19,611,659,635,695c18,28,16,71-4,97c-67,85-594,685-609,693C1836,1958,1800,1951,1769,1921z"/>
</g>
</svg>
