<?xml version="1.0" encoding="utf-8"?>
<!-- Generator: Adobe Illustrator 21.0.2, SVG Export Plug-In . SVG Version: 6.00 Build 0)  -->
<svg version="1.1" id="Capa_1" xmlns="http://www.w3.org/2000/svg" xmlns:xlink="http://www.w3.org/1999/xlink" x="0px" y="0px"
	 viewBox="0 0 400 400" style="enable-background:new 0 0 400 400;" xml:space="preserve">
<style type="text/css">
	.st0{fill-rule:evenodd;clip-rule:evenodd;fill:#51A2CA;}
</style>
<g>
	<g>
		<path class="st0" d="M86.5,37.7c0.7-5.2,1.3-10.2,2.1-15.2c0.6-3.8,0.8-7.8,2.2-11.2c1.9-4.5,6-6.5,10.9-6.3c4.1,0.2,8,2,9.2,5.9
			c1.6,5.4,2.2,11.2,3,16.9c1.3,10,3.2,12.2,13.3,12.6c9.6,0.4,19.3,0.2,28.9,0.2c31.5,0,63,0,94.5,0c3.2,0,6.4-0.1,9.6,0
			c12.9,0.1,18.9-1.5,18.4-17.7c-0.1-1.9,0-3.9,0.3-5.8c1.2-8.1,5.6-12.4,12.2-12.2c6.5,0.2,10.5,4.5,11.6,13
			c0.5,3.8,0.2,7.7,0.7,11.5c0.9,7.8,3.2,10.3,10.9,10.9c7,0.5,14.1,0.2,21.2,0.5c29.8,1.3,47.5,18.7,49.3,48.5
			c0.2,3.8,0.1,7.7,0.1,11.6c0,78.5,0,156.9-0.1,235.4c0,7.1,0,14.2-1,21.2c-3.5,24-20.2,38.9-44.4,40.3c-5.1,0.3-10.3,0.2-15.4,0.2
			c-84.9,0-169.8,0-254.7,0c-5.1,0-10.3,0.1-15.4-0.2c-22.7-1.5-38.7-15.5-42.3-37.8c-1.6-10.1-2.4-20.5-2.4-30.7
			C9,256.6,9,183.9,9.1,111.3c0-9.6,0.3-19.3,1.6-28.8C14.3,55.6,30,41.9,57.4,40.8c7.7-0.3,15.4-0.4,23.1-0.8
			C81.7,39.9,82.9,39.1,86.5,37.7z M197,373.1C197,373.1,197,373.1,197,373.1c43.7,0,87.4,0.1,131.1-0.1c25.7-0.1,31.6-6,31.7-32.1
			c0.2-53.3,0.2-106.7,0-160c0-22-1.2-23.1-22.7-23.1c-93.2-0.1-186.4-0.1-279.5,0c-22.6,0-23.4,0.9-23.5,24.3
			c-0.1,50.8-0.1,101.5,0,152.3c0,5.8,0,11.6,1,17.3c2.4,14.2,9,20.2,23.1,21.2c5.1,0.4,10.3,0.2,15.4,0.2
			C114.7,373.1,155.8,373.1,197,373.1z M196.7,132.9c45,0,90,0,135,0c5.1,0,10.3,0.1,15.4-0.2c8.9-0.6,12-3.2,12.4-11.5
			c0.4-10.9,0.7-21.9-0.2-32.7c-1-12.8-7.9-19.9-20.6-21.7c-7.6-1-15.4-0.9-23.1-0.5c-8.7,0.4-11.2,3.2-12.2,11.7
			c-0.7,5.7-0.9,11.5-2.4,17c-1.2,4.7-5.3,7.3-10.3,7.3c-5,0-8.7-2.9-10.3-7.4c-1.2-3.5-1.8-7.5-1.7-11.3
			c0.3-16.2-6.4-17.7-18.7-17.6c-2.6,0-5.1,0-7.7,0c-37.3,0-74.6,0-111.8,0c-4.5,0-9-0.1-13.5,0.2c-9.6,0.7-11.7,3.1-13.1,13.1
			c-0.8,5.7-1.2,11.6-3.3,16.7c-1.2,2.9-5.5,5.5-8.8,6.3c-4.8,1.1-8.8-2.2-10.7-6.5c-1.5-3.4-1.9-7.4-2.3-11.1
			C86.7,66.9,86.1,66.2,69.2,66c-2.6,0-5.1-0.1-7.7,0.1c-19.3,1-26,7.6-27.2,27.4c-0.3,5.1-0.2,10.3-0.2,15.4
			c0.2,23.1,0.8,23.9,23.8,24C104.1,133,150.4,132.9,196.7,132.9z"/>
		<path class="st0" d="M289.8,236.1c-7.7-0.5-13.9-7.4-13.6-15.4c0.3-8.9,7.6-15.2,16.4-14.3c7.8,0.8,13,7.6,12.4,16.2
			C304.4,230.9,297.9,236.6,289.8,236.1z"/>
		<path class="st0" d="M182.1,220.7c0.3-8.4,6.6-14.5,14.9-14.3c7.9,0.2,14.1,7,13.9,15.3c-0.2,8.2-6.9,14.7-14.9,14.3
			C187.9,235.7,181.9,229,182.1,220.7z"/>
		<path class="st0" d="M210.8,303.7c0.4,7.9-5.9,15-13.7,15.3c-7.9,0.4-14.7-6-15-13.9c-0.3-8.5,5.3-14.7,13.6-15
			C204.1,289.7,210.5,295.5,210.8,303.7z"/>
		<path class="st0" d="M117.5,303.8c0.4,7.2-6.9,14.8-14.4,15.2c-8.1,0.4-14.8-5.8-15.1-14c-0.3-8.6,5.3-14.7,13.8-14.9
			C109.8,289.9,117.1,296.3,117.5,303.8z"/>
		<path class="st0" d="M304.9,304.9c-0.3,8.4-7,14.6-15.1,13.9c-7.3-0.6-13.1-6.7-13.3-14c-0.2-8.5,5.9-14.7,14.4-14.6
			C299.6,290.2,305.2,296.1,304.9,304.9z"/>
	</g>
</g>
</svg>
