<?xml version="1.0" encoding="utf-8"?>
<!-- Generator: Adobe Illustrator 21.0.2, SVG Export Plug-In . SVG Version: 6.00 Build 0)  -->
<svg version="1.1" id="Capa_1" xmlns="http://www.w3.org/2000/svg" xmlns:xlink="http://www.w3.org/1999/xlink" x="0px" y="0px"
	 viewBox="0 0 400 400" style="enable-background:new 0 0 400 400;" xml:space="preserve">
<style type="text/css">
	.st0{fill:#53A3DE;}
	.st1{fill:#FFFFFF;}
</style>
<g>
	<path class="st0" d="M202,383.3c-27.1,0-54.1,0-81.2,0c-7.4,0-14.8,0.1-21.8-2.7c-18-7.2-29.2-20.1-32.4-39.3
		c-1.1-6.6-1-13.5-1.1-20.2c-0.1-27.7,0-55.3,0-83c0-4.3,0.1-8.6-0.1-12.9c-0.5-11-1.8-12.3-13.3-12.6c-4.3-0.1-8.6,0.1-12.9-0.2
		c-12.4-0.9-22-9.4-23.4-21.9c-2.2-19.9,1.5-37.4,18.4-51.1c34.3-27.9,67.9-56.7,101.8-85.2c13.2-11.1,26.1-22.4,39.6-33.1
		c17.2-13.6,34.9-13.7,52.5-0.9c2.5,1.8,4.8,3.9,7.1,5.8c25,20.9,50,41.8,75,62.7c18.9,15.8,37.2,32.2,56.7,47.1
		c18.2,13.9,23.8,31.9,21.6,53.6c-1.4,14-9.8,22.2-23.8,23.1c-0.6,0-1.2,0.1-1.8,0c-25.1-0.4-23-1.1-23,24.8c0,27.1,0,54.1,0,81.2
		c0,5.5,0,11.1-0.4,16.6c-2.1,29.8-26,49.2-50.8,48.2c-1.2-0.1-2.5,0-3.7,0C257.3,383.3,229.7,383.3,202,383.3z"/>
	<path class="st1" d="M85.9,270.3c0-17.2,0.3-34.5-0.1-51.7c-0.4-19.2-7.9-26.8-26.8-27.6c-3.1-0.1-6.2,0-9.2-0.1
		c-10.5-0.4-11.6-1.9-12-11.6c-0.5-11,4.9-18.6,12.8-25.2c16.5-13.8,32.9-27.7,49.4-41.5c27.3-23,54.6-45.8,81.9-68.9
		c17.9-15.1,22.8-15.3,41.1,0.1c42.4,35.6,84.7,71.3,127,106.9c3.7,3.2,7.5,6.4,10.8,10c7.1,7.6,6.2,16.9,4.6,26.1
		c-0.5,2.7-3.1,3.6-5.7,3.7c-5.5,0.2-11.1,0-16.6,0.4c-14.7,1.1-22.4,8.3-24.2,22.9c-0.7,5.5-0.5,11-0.5,16.6
		c0,30.1,0,60.3-0.1,90.4c0,5.5,0,11.2-1.3,16.5c-3.3,13.6-13.3,24.1-28.7,24c-7.4,0-14.8,0.2-22.1-0.1c-6.7-0.2-8.5-2-8.6-9.2
		c-0.2-15.4-0.1-30.8-0.2-46.1c0-8,0.3-16-0.3-24c-1.4-19.3-8.8-35.6-25.2-47c-23.3-16.2-53.3-11.7-70.8,10.7
		c-9,11.6-13.4,24.8-13.5,39.4c-0.1,19.1,0,38.1-0.1,57.2c0,4.3-0.1,8.6-0.5,12.9c-0.3,3.6-2.7,5.8-6,5.9
		c-9.8,0.2-19.7,0.5-29.5-0.3c-10.7-0.9-17.9-7.5-22.1-17.3c-2.9-6.9-3.8-14.2-3.8-21.7C86,304.8,85.9,287.5,85.9,270.3L85.9,270.3z
		"/>
	<path class="st1" d="M235.3,318.6c0,11.1,0.2,22.1-0.1,33.2c-0.2,7.7-2,9.5-10.2,9.6c-15.4,0.2-30.7,0.2-46.1,0
		c-7.1-0.1-8.8-1.9-9.1-8.6c-0.3-5.5-0.1-11.1-0.1-16.6c0-15.4,0.1-30.8,0-46.1c-0.1-7.6,1.1-14.8,5.2-21.2
		c6.6-10.5,15.9-17.6,28.9-16.6c13.3,1,22.9,8.3,28.2,20.6c2.4,5.7,3.4,11.8,3.4,18C235.3,300.2,235.4,309.4,235.3,318.6
		C235.4,318.6,235.4,318.6,235.3,318.6z"/>
</g>
</svg>
