<?xml version="1.0" encoding="utf-8"?>
<!-- Generator: Adobe Illustrator 16.0.0, SVG Export Plug-In . SVG Version: 6.00 Build 0)  -->
<!DOCTYPE svg PUBLIC "-//W3C//DTD SVG 1.1//EN" "http://www.w3.org/Graphics/SVG/1.1/DTD/svg11.dtd">
<svg version="1.1" id="Capa_1" xmlns="http://www.w3.org/2000/svg" xmlns:xlink="http://www.w3.org/1999/xlink" x="0px" y="0px"
	 width="40px" height="40px" viewBox="0 0 40 40" enable-background="new 0 0 40 40" xml:space="preserve">
<g>
	<path fill="#FFFFFF" stroke="#000000" stroke-miterlimit="10" d="M28.761,19.959c-0.637,0.033-1.39-0.121-2.111-0.42
		c-1.167-0.481-1.333-0.46-2.163,0.42c-4.533,4.81-9.062,9.626-13.601,14.432c-0.731,0.774-1.375,1.646-2.543,1.88
		c-1.38,0.276-2.938-0.389-3.652-1.671c-0.781-1.4-0.639-2.892,0.462-3.945c2.538-2.428,5.106-4.825,7.66-7.236
		c2.614-2.469,5.214-4.952,7.847-7.4c0.641-0.595,0.784-1.188,0.443-1.983c-1.801-4.198,1.352-9.675,6.315-10.366
		c1.172-0.164,2.205,0.333,3.144,1.025c0.401,0.296,0.09,0.449-0.089,0.629c-1.09,1.102-2.165,2.217-3.284,3.288
		c-0.367,0.353-0.461,0.702-0.37,1.171c0.179,0.919,0.355,1.839,0.492,2.765c0.063,0.424,0.269,0.627,0.669,0.692
		c0.734,0.118,1.49,0.17,2.195,0.386c0.942,0.29,1.582,0.052,2.224-0.693c0.862-1.004,1.877-1.877,2.789-2.841
		c0.358-0.378,0.516-0.302,0.801,0.075c1.072,1.416,1.124,2.927,0.537,4.533C35.4,17.783,32.273,19.947,28.761,19.959z"/>
	<path fill="#FFFFFF" stroke="#000000" stroke-miterlimit="10" d="M8.87,32.798c0.017,0.634-0.476,1.181-1.097,1.22
		c-0.625,0.039-1.235-0.544-1.235-1.183c0-0.635,0.503-1.134,1.158-1.145C8.372,31.679,8.853,32.132,8.87,32.798z"/>
</g>
</svg>
