<?xml version="1.0" encoding="utf-8"?>
<!-- Generator: Adobe Illustrator 21.0.2, SVG Export Plug-In . SVG Version: 6.00 Build 0)  -->
<svg version="1.1" id="Capa_1" xmlns="http://www.w3.org/2000/svg" xmlns:xlink="http://www.w3.org/1999/xlink" x="0px" y="0px"
	 viewBox="0 0 40 40" style="enable-background:new 0 0 40 40;" xml:space="preserve">
<style type="text/css">
	.st0{fill:none;stroke:#FFFFFF;stroke-width:2;stroke-miterlimit:10;}
	.st1{fill:#FFFFFF;stroke:#FFFFFF;stroke-miterlimit:10;}
</style>
<g>
	<path class="st0" d="M28.8,20c-0.6,0-1.4-0.1-2.1-0.4c-1.2-0.5-1.3-0.5-2.2,0.4c-4.5,4.8-9.1,9.6-13.6,14.4
		c-0.7,0.8-1.4,1.6-2.5,1.9c-1.4,0.3-2.9-0.4-3.7-1.7c-0.8-1.4-0.6-2.9,0.5-3.9c2.5-2.4,5.1-4.8,7.7-7.2c2.6-2.5,5.2-5,7.8-7.4
		c0.6-0.6,0.8-1.2,0.4-2c-1.8-4.2,1.4-9.7,6.3-10.4c1.2-0.2,2.2,0.3,3.1,1c0.5,0.3,0.2,0.4,0,0.6c-1.1,1.1-2.2,2.2-3.3,3.3
		c-0.4,0.4-0.5,0.7-0.4,1.2c0.2,0.9,0.4,1.8,0.5,2.8c0.1,0.4,0.3,0.6,0.7,0.7c0.7,0.1,1.5,0.2,2.2,0.4c0.9,0.3,1.6,0.1,2.2-0.7
		c0.9-1,1.9-1.9,2.8-2.8c0.4-0.4,0.5-0.3,0.8,0.1c1.1,1.4,1.1,2.9,0.5,4.5C35.4,17.8,32.3,19.9,28.8,20z"/>
	<path class="st1" d="M8.9,32.8c0,0.6-0.5,1.2-1.1,1.2s-1.2-0.5-1.2-1.2c0-0.6,0.5-1.1,1.2-1.1C8.4,31.7,8.9,32.1,8.9,32.8z"/>
</g>
</svg>
