<?xml version="1.0" encoding="utf-8"?>
<!-- Generator: Adobe Illustrator 21.0.2, SVG Export Plug-In . SVG Version: 6.00 Build 0)  -->
<svg version="1.1" id="Capa_1" xmlns="http://www.w3.org/2000/svg" xmlns:xlink="http://www.w3.org/1999/xlink" x="0px" y="0px"
	 viewBox="0 0 220.3 219" style="enable-background:new 0 0 220.3 219;" xml:space="preserve">
<style type="text/css">
	.st0{fill-rule:evenodd;clip-rule:evenodd;fill:#1F5692;}
	.st1{fill:#FFFFFF;}
	.st2{fill:#1F5692;}
</style>
<g>
	<ellipse class="st0" cx="110.5" cy="108.6" rx="107.6" ry="106.5"/>
	<rect x="110.5" y="9.9" class="st1" width="9.5" height="28"/>
	<rect x="112.4" y="180.4" class="st1" width="9.5" height="28"/>
	
		<rect x="65" y="183.3" transform="matrix(0.4349 -0.9005 0.9005 0.4349 -124.7303 177.4106)" class="st1" width="28" height="9.5"/>
	<rect x="74.8" y="16.3" transform="matrix(0.9087 -0.4174 0.4174 0.9087 -5.3707 35.9925)" class="st1" width="9.5" height="28"/>
	<rect x="37" y="165.5" transform="matrix(0.7248 -0.6889 0.6889 0.7248 -103.2667 81.9687)" class="st1" width="28" height="9.5"/>
	<rect x="19.2" y="137.5" transform="matrix(0.9213 -0.3889 0.3889 0.9213 -52.7183 24.098)" class="st1" width="28" height="9.5"/>
	<polygon class="st1" points="45.3,74.8 43.4,84.2 16,78.6 17.8,69.3 	"/>
	<rect x="11.5" y="105" class="st1" width="28" height="9.5"/>
	<g>
		<g>
			<path class="st1" d="M111.3,90.2c-3.9,0.1-8.9,2.8-10,3.1L49.7,42.6c0,0-3.3-3.9-6.2-0.1c-2.9,3.8,1.2,7.5,1.2,7.5l50.8,50.8
				c-0.9,5.8-0.6,7.1-0.5,7.8c0.7,10.5,9.3,18.4,19.2,17.7c9.9-0.7,16.5-8.8,15.9-19.3C129.2,97.2,121.2,89.8,111.3,90.2z"/>
			<path class="st2" d="M118,101.6c3.7,3.3,4.1,9.2,0.9,13c-3.2,3.9-8.7,4.3-12.3,1c-3.7-3.3-4.1-9.2-0.9-13
				C108.9,98.7,114.4,98.2,118,101.6z"/>
		</g>
	</g>
</g>
</svg>
