<?xml version="1.0" encoding="utf-8"?>
<!-- Generator: Adobe Illustrator 21.0.2, SVG Export Plug-In . SVG Version: 6.00 Build 0)  -->
<svg version="1.1" id="Capa_1" xmlns="http://www.w3.org/2000/svg" xmlns:xlink="http://www.w3.org/1999/xlink" x="0px" y="0px"
	 viewBox="0 0 400 400" style="enable-background:new 0 0 400 400;" xml:space="preserve">
<style type="text/css">
	.st0{fill-rule:evenodd;clip-rule:evenodd;fill:#606060;}
	.st1{fill-rule:evenodd;clip-rule:evenodd;fill:#51A2CA;}
	.st2{fill:#FFFFFF;}
</style>
<g>
	<g>
		<path class="st0" d="M392.9,316.6C392.8,316.6,392.8,316.6,392.9,316.6c-0.1-8.9,0.5-17.9-0.2-26.8c-1.6-22.7-16.6-41.1-38.3-47
			c-17.9-4.8-36-9.3-54.1-13.2c-11.7-2.5-23.9-3.1-34.8,3.3c-10.3,5.9-20.8,12-21.1,26.3c0,1.3-3.3,3.5-5,3.4
			c-2.6-0.1-7.1-1.3-7.5-2.8c-2.5-10.5-10.7-15.5-18.3-21.5c-16.5-12.9-31.2-27.7-43.8-44.4c-13.1-17.4-18.1-20.1-0.4-39.5
			c12.6-13.8,16.6-30.9,9.3-49.9c-4.5-11.7-6.3-24.4-9.4-36.7c-1.7-6.5-3-13.1-5.4-19.3c-7-18.4-20.5-29.5-40.2-30.5
			c-20.8-1-41.7-1.4-62.5,0C34.6,20,16.7,40.9,16.8,67.6c0,4.4,0.7,8.9,1.3,13.3c9.6,70.5,37.7,132.9,83.7,186.8
			c52.9,61.9,119.7,101.8,199.2,119.7c14.4,3.2,29.4,4.3,44.2,5.2c16.3,1,28.5-7.4,37.8-20c6.3-8.5,9.7-18.4,9.9-29.2
			C393,334.5,392.9,325.5,392.9,316.6z"/>
		<path class="st1" d="M392.9,316.6c0,8.9,0.1,17.9,0,26.8c-0.2,10.8-3.6,20.6-9.9,29.2c-9.3,12.6-21.4,21.1-37.8,20
			c-14.8-0.9-29.8-2-44.2-5.2c-79.5-17.9-146.3-57.8-199.2-119.7c-46-53.9-74.1-116.4-83.7-186.8c-0.6-4.4-1.3-8.9-1.3-13.3
			C16.7,40.9,34.6,20,61.3,18.2c20.7-1.4,41.7-1,62.5,0c19.7,1,33.2,12.1,40.2,30.5c2.4,6.2,3.8,12.8,5.4,19.3
			c3.1,12.2,4.9,25,9.4,36.7c7.3,19,3.3,36.1-9.3,49.9c-17.8,19.3-12.7,22.1,0.4,39.5c12.6,16.7,27.3,31.5,43.8,44.4
			c7.6,6,15.8,11,18.3,21.5c0.4,1.5,4.8,2.7,7.5,2.8c1.7,0.1,4.9-2.2,5-3.4c0.3-14.3,10.8-20.4,21.1-26.3
			c10.9-6.3,23.1-5.7,34.8-3.3c18.2,3.8,36.2,8.3,54.1,13.2c21.7,5.8,36.7,24.3,38.3,47C393.3,298.7,392.8,307.7,392.9,316.6
			C392.8,316.6,392.8,316.6,392.9,316.6z M363.5,318.2c0-5.9,0.2-11.9,0-17.8c-0.7-20.5-5.3-26.3-24.7-31.1
			c-13-3.2-26.1-5.9-38.9-9.8c-12.8-3.9-23.3-1.5-32.5,8.1c-5.2,5.4-10.4,10.6-15.9,15.6c-6.9,6.3-14.5,7-22.4,1.8
			c-1.9-1.2-3.9-2.2-5.7-3.5c-32.7-21.4-61-47.4-84-79.1c-5.2-7.2-9.8-14.9-14.1-22.7c-4.4-7.9-3.8-15.7,2.6-22.6
			c5.1-5.4,10.2-10.8,15.4-16.1c7.9-8.1,10.7-17.1,7.3-28.5c-4.2-14.2-7.3-28.8-10.9-43.2c-4.4-17.7-10.7-23.1-29.7-24
			c-10.4-0.5-20.8,0.2-31.2-0.3c-22.3-1-36.9,8.8-31.7,37.8c11.2,63,36.6,119.2,78.2,167.7c37.6,43.7,84.1,75.5,137.8,95.7
			c21.4,8,44.4,12.6,67,16.2c25.2,3.9,32.6-3.6,33.4-28.5C363.7,328.6,363.6,323.4,363.5,318.2z"/>
		<path class="st2" d="M363.5,318.2c0,5.2,0.1,10.4,0,15.6c-0.8,25-8.2,32.5-33.4,28.5c-22.7-3.5-45.6-8.1-67-16.2
			c-53.7-20.2-100.3-51.9-137.8-95.7C83.7,202,58.3,145.8,47.1,82.8C41.9,53.8,56.6,44,78.8,45c10.4,0.5,20.8-0.2,31.2,0.3
			c18.9,0.9,25.3,6.3,29.7,24c3.6,14.4,6.6,29,10.9,43.2c3.4,11.4,0.6,20.4-7.3,28.5c-5.2,5.3-10.4,10.7-15.4,16.1
			c-6.4,6.9-7,14.7-2.6,22.6c4.4,7.8,8.9,15.5,14.1,22.7c23,31.7,51.3,57.7,84,79.1c1.9,1.2,3.9,2.2,5.7,3.5
			c7.9,5.2,15.5,4.5,22.4-1.8c5.5-5,10.8-10.3,15.9-15.6c9.2-9.5,19.8-11.9,32.5-8.1c12.8,3.9,25.9,6.5,38.9,9.8
			c19.4,4.9,24,10.6,24.7,31.1C363.7,306.3,363.5,312.3,363.5,318.2z"/>
	</g>
</g>
</svg>
